<svg xmlns="http://www.w3.org/2000/svg" viewBox="0 0 400 300" width="406" height="306" class="illustration styles_illustrationTablet__1DWOa"><g id="_267_party_outline" data-name="#267_party_outline"><path d="M233.94,118.23,175.46,182l13.84,6,11.72,5.1,12.29,5.32,11.74,5.1,12.28,5.33,11.74,5.09,12.28,5.32,11.73,5.11,8.47,3.67A5.8,5.8,0,0,0,289,220l-7.41-13.71-7.58-14L266,177.59l-7.57-14-7.92-14.65-7.58-14-7.91-14.65Z" fill="#C96464"></path><path d="M283.87,229.51a6.67,6.67,0,0,1-2.72-.57l-106.08-46a1,1,0,0,1-.34-1.59l58.47-63.77a1,1,0,0,1,1.62.2l55,101.72a6.79,6.79,0,0,1-4.56,9.89A6.69,6.69,0,0,1,283.87,229.51ZM177.15,181.63,282,227.11a4.8,4.8,0,0,0,6.13-6.69L233.73,119.94Z" fill="#093f68"></path><polygon points="273.97 192.24 261.35 219.25 273.08 224.36 281.55 206.24 273.97 192.24" fill="#fff"></polygon><path d="M273.08,225.36a1,1,0,0,1-.4-.09L261,220.17a1,1,0,0,1-.54-.56,1,1,0,0,1,0-.78l12.62-27a1,1,0,0,1,.88-.57,1,1,0,0,1,.91.52l7.58,14a1,1,0,0,1,0,.9L274,224.78A1,1,0,0,1,273.08,225.36Zm-10.39-6.61,9.9,4.3,7.84-16.78L274,194.46Z" fill="#093f68"></path><polygon points="258.47 163.59 237.33 208.84 249.07 213.93 266.04 177.59 258.47 163.59" fill="#fff"></polygon><path d="M249.07,214.93a.92.92,0,0,1-.4-.08l-11.74-5.1a1,1,0,0,1-.54-.56,1,1,0,0,1,0-.77l21.14-45.25a1,1,0,0,1,.88-.58,1,1,0,0,1,.91.53l7.57,14a1,1,0,0,1,0,.9l-17,36.34A1,1,0,0,1,249.07,214.93Zm-10.4-6.6,9.9,4.3,16.35-35-6.39-11.82Z" fill="#093f68"></path><polygon points="242.97 134.94 213.31 198.41 225.05 203.51 250.55 148.94 242.97 134.94" fill="#fff"></polygon><path d="M225.05,204.51a1,1,0,0,1-.39-.08l-11.75-5.1a1,1,0,0,1-.53-.56,1,1,0,0,1,0-.78l29.66-63.48a1,1,0,0,1,1.78,0l7.58,14a1,1,0,0,1,0,.9L226,203.93A1,1,0,0,1,225.05,204.51Zm-10.4-6.6,9.91,4.29L249.43,149,243,137.16Z" fill="#093f68"></path><polygon points="233.94 118.23 209.39 145 189.3 187.99 201.02 193.09 235.06 120.29 233.94 118.23" fill="#fff"></polygon><path d="M201,194.09a1,1,0,0,1-.4-.09l-11.72-5.09a1,1,0,0,1-.54-.57,1,1,0,0,1,0-.77l20.09-43a.85.85,0,0,1,.17-.25l24.55-26.78a1,1,0,0,1,1.62.2l1.11,2.06a1,1,0,0,1,0,.9l-34,72.8A1,1,0,0,1,201,194.09Zm-10.38-6.61,9.89,4.3,33.41-71.46-.21-.38-23.5,25.62Z" fill="#093f68"></path><circle cx="148.07" cy="131.4" r="13.47" fill="#f56132"></circle><path d="M148,145.87a14.53,14.53,0,1,1,1.21-.05C148.85,145.86,148.45,145.87,148,145.87Zm.05-26.95c-.35,0-.69,0-1,0a12.22,12.22,0,1,0,1,0Z" fill="#093f68"></path><circle cx="185.48" cy="148.5" r="6.31" fill="#ffbc0e"></circle><path d="M185.47,155.81a7.32,7.32,0,0,1-7.28-6.71h0a7.31,7.31,0,1,1,7.89,6.69Zm-5.28-6.87a5.31,5.31,0,1,0,4.85-5.73,5.31,5.31,0,0,0-4.85,5.73Z" fill="#093f68"></path><path d="M182.06,105.66l.45,8.2-6.5,5a1.4,1.4,0,0,0,.5,2.46l7.93,2.1,2.76,7.73a1.4,1.4,0,0,0,2.49.29l4.45-6.89,8.2-.24a1.4,1.4,0,0,0,1-2.28l-5.18-6.37,2.31-7.87a1.4,1.4,0,0,0-1.85-1.69l-7.65,3-6.78-4.63A1.4,1.4,0,0,0,182.06,105.66Z" fill="#70cc40"></path><path d="M188.52,133.09l-.28,0a2.39,2.39,0,0,1-2-1.58l-2.59-7.23-7.42-2a2.36,2.36,0,0,1-1.73-1.84,2.39,2.39,0,0,1,.88-2.37l6.08-4.69-.42-7.67h0a2.4,2.4,0,0,1,3.75-2.11l6.34,4.33,7.16-2.77a2.4,2.4,0,0,1,3.17,2.91l-2.16,7.37,4.84,6a2.36,2.36,0,0,1,.32,2.51,2.4,2.4,0,0,1-2.11,1.4l-7.67.22L190.53,132A2.39,2.39,0,0,1,188.52,133.09Zm-5.46-27.48.45,8.19a1,1,0,0,1-.39.85l-6.49,5a.38.38,0,0,0-.15.39.4.4,0,0,0,.29.31l7.93,2.11a1,1,0,0,1,.68.63l2.76,7.72a.38.38,0,0,0,.33.26.39.39,0,0,0,.38-.18L193.3,124a1,1,0,0,1,.81-.45l8.2-.24a.4.4,0,0,0,.3-.65l-5.18-6.36a1,1,0,0,1-.18-.92l2.31-7.87a.37.37,0,0,0-.12-.4A.35.35,0,0,0,199,107l-7.65,3a1,1,0,0,1-.92-.11l-6.78-4.63a.39.39,0,0,0-.62.35Z" fill="#093f68"></path><path d="M155.22,71.17l-2.89,7.68-8,2a1.4,1.4,0,0,0-.54,2.45l6.41,5.13-.59,8.18a1.4,1.4,0,0,0,2.16,1.27l6.86-4.51,7.6,3.09a1.39,1.39,0,0,0,1.87-1.66L166,86.84l5.29-6.27a1.39,1.39,0,0,0-1-2.29l-8.2-.39-4.33-7A1.4,1.4,0,0,0,155.22,71.17Z" fill="#ffbc0e"></path><path d="M151,99.07a2.4,2.4,0,0,1-2.39-2.57l.56-7.66-6-4.8a2.4,2.4,0,0,1,.92-4.2L151.58,78l2.71-7.18a2.4,2.4,0,0,1,4.28-.42l4.05,6.52,7.67.36A2.39,2.39,0,0,1,172,81.22l-4.95,5.87,2,7.4a2.4,2.4,0,0,1-3.21,2.86l-7.11-2.9-6.42,4.22A2.35,2.35,0,0,1,151,99.07Zm5.51-27.8h0a.38.38,0,0,0-.33.25h0l-2.9,7.68a1,1,0,0,1-.69.62l-8,2a.37.37,0,0,0-.29.3.39.39,0,0,0,.14.4l6.41,5.12a1,1,0,0,1,.37.86l-.59,8.18a.36.36,0,0,0,.19.37.37.37,0,0,0,.42,0l6.86-4.51a1,1,0,0,1,.92-.09l7.6,3.09a.38.38,0,0,0,.42-.07.41.41,0,0,0,.12-.4L165,87.11a1,1,0,0,1,.2-.91l5.28-6.27a.4.4,0,0,0-.28-.66l-8.2-.38a1,1,0,0,1-.8-.47l-4.33-7A.39.39,0,0,0,156.54,71.27Zm-1.32-.1h0Z" fill="#093f68"></path><path d="M141.75,176.36a7.09,7.09,0,0,1-1.74-.22,7.67,7.67,0,0,1-5.45-4.8c-1.19-3.63.35-7.37,2.81-9.88a14.22,14.22,0,0,0-7.56-.7,9.27,9.27,0,0,0-1.39.41,6.42,6.42,0,0,1,.37.68c1.4,2.84,1.12,7-1.77,9a4,4,0,0,1-2.74.78,3.19,3.19,0,0,1-2.23-1.41,5.52,5.52,0,0,1-.67-4.23,9.57,9.57,0,0,1,4-5.51,15.27,15.27,0,0,0-4.28-2.88,29.17,29.17,0,0,0-25.54.35,1,1,0,0,1-.91-1.78,31.23,31.23,0,0,1,27.32-.37,16.64,16.64,0,0,1,5.22,3.68,11.08,11.08,0,0,1,2.2-.71,16.8,16.8,0,0,1,9.73,1.19l.17-.11c3-2,6.84-2.88,12.1-2.84,6.11,0,14.78,1.26,21.42,6.84a1,1,0,1,1-1.29,1.53c-6.18-5.2-14.37-6.34-20.14-6.37-4.35,0-7.55.59-10.08,2a12.85,12.85,0,0,1,5.39,4.93c1.42,2.58,1.58,6.44-.87,8.83A5.71,5.71,0,0,1,141.75,176.36Zm-2.34-14.07c-2.3,2-4,5.34-2.95,8.43a5.63,5.63,0,0,0,4,3.48,4.12,4.12,0,0,0,3.94-.87c1.71-1.67,1.54-4.57.51-6.44A11.79,11.79,0,0,0,139.41,162.29Zm-12.77-.22a7.51,7.51,0,0,0-3.31,4.42,3.53,3.53,0,0,0,.37,2.63,1.21,1.21,0,0,0,.84.56,2.09,2.09,0,0,0,1.32-.44c2-1.4,2.14-4.47,1.14-6.51Q126.84,162.4,126.64,162.07Z" fill="#093f68"></path><path d="M109.55,108.23a15.74,15.74,0,0,1,13.09-9.67l4.3,6.7s-9.54,1.89-11.83,8.91Z" fill="#70cc40"></path><path d="M115.11,115.17a1,1,0,0,1-.73-.31l-5.56-5.94a1,1,0,0,1-.22-1c.12-.36,3.16-9,13.92-10.35a1,1,0,0,1,1,.46l4.3,6.7a1,1,0,0,1,.07.93,1,1,0,0,1-.72.59c-.09,0-9,1.87-11.08,8.24a1,1,0,0,1-.74.67A.75.75,0,0,1,115.11,115.17Zm-4.4-7.15,4.07,4.34c2.42-4.82,8-7,10.58-7.73l-3.21-5A14.71,14.71,0,0,0,110.71,108Z" fill="#093f68"></path><rect x="181.69" y="60.13" width="12.09" height="5.06" transform="translate(360.12 159.9) rotate(-169.03)" fill="#f56132"></rect><path d="M193.19,67.29H193L181.13,65a1,1,0,0,1-.64-.43,1,1,0,0,1-.15-.75l1-5a1,1,0,0,1,1.17-.79l11.87,2.3a1,1,0,0,1,.79,1.17l-1,5A1,1,0,0,1,193.19,67.29Zm-10.7-4.09,9.91,1.92.58-3-9.91-1.92Z" fill="#093f68"></path><path d="M223.19,117.48a1,1,0,0,1-.7-.29,37.14,37.14,0,0,1-9.22-15,26.11,26.11,0,0,1-1-13.28,26.42,26.42,0,0,1-3.88-15.06,40.83,40.83,0,0,1,5.07-17.45,1,1,0,0,1,1.34-.43,1,1,0,0,1,.43,1.35,39,39,0,0,0-4.84,16.6,25,25,0,0,0,2.66,12.35c2-5.14,6.27-8.91,11.12-9.69a9.41,9.41,0,0,1,7.75,2,9.76,9.76,0,0,1,2.87,6.18,11.13,11.13,0,0,1-3.79,10c-5,4-12.9,1.34-17.06-3.59h0a25.46,25.46,0,0,0,1.23,10.41,35.15,35.15,0,0,0,8.73,14.21,1,1,0,0,1,0,1.41A1,1,0,0,1,223.19,117.48Zm-8.75-29c.33.47.68.93,1,1.36,3.57,4.22,10.17,6.56,14.31,3.31a9.28,9.28,0,0,0,3-8.24A7.66,7.66,0,0,0,230.59,80a7.31,7.31,0,0,0-6.08-1.49c-4.25.68-8.17,4.27-9.76,8.93C214.64,87.82,214.53,88.16,214.44,88.51Z" fill="#093f68"></path><path d="M112.59,130.6a1,1,0,0,1-.71-.3,4.89,4.89,0,0,0-3.13-1.44,1,1,0,0,1,.14-2,7,7,0,0,1,4.42,2,1,1,0,0,1,0,1.42A1,1,0,0,1,112.59,130.6Z" fill="#dfeaef"></path><path d="M131.75,87.66a1,1,0,0,1-.84-.45,29,29,0,0,1-3.67-7.93,1.74,1.74,0,0,1,.16-1.56A1.33,1.33,0,0,1,129,77.3a1.17,1.17,0,0,1,.73,1.29,1,1,0,0,1-.4.64,26.93,26.93,0,0,0,3.27,6.87,1,1,0,0,1-.28,1.39A1,1,0,0,1,131.75,87.66Z" fill="#dfeaef"></path><path d="M191.52,95.94a1,1,0,0,1-.16-2,3.34,3.34,0,0,0,2.24-1.63,3.1,3.1,0,0,0,.34-2.59l0-.1a6.62,6.62,0,0,1-1.79,1.52,4.08,4.08,0,0,1-3.08.52,2.8,2.8,0,0,1-2.13-2.79,3.1,3.1,0,0,1,1.33-2.21,4.86,4.86,0,0,1,4.29-.63,5.87,5.87,0,0,1,.9.37c.08-.23.15-.45.21-.69a20.13,20.13,0,0,0,.33-5.1,1,1,0,0,1,2,0,20.71,20.71,0,0,1-.4,5.63,9.77,9.77,0,0,1-.5,1.5,4.56,4.56,0,0,1,.76,1.36,5.06,5.06,0,0,1-.51,4.26,5.39,5.39,0,0,1-3.63,2.6ZM191,87.8a2.51,2.51,0,0,0-1.53.48,1.2,1.2,0,0,0-.54.74c0,.28.3.62.66.72a2.17,2.17,0,0,0,1.57-.32,4.71,4.71,0,0,0,1.37-1.24,3.46,3.46,0,0,0-.56-.23A3.27,3.27,0,0,0,191,87.8Z" fill="#dfeaef"></path><path d="M164.94,63.54a1,1,0,0,1-.94-.65,8.36,8.36,0,0,1-.09-5.54,1,1,0,0,1,1.26-.64,1,1,0,0,1,.64,1.27,6.43,6.43,0,0,0,.06,4.22,1,1,0,0,1-.59,1.28A1,1,0,0,1,164.94,63.54Z" fill="#dfeaef"></path></g></svg>